<svg width="255" height="105" viewBox="0 0 255 105" fill="none" xmlns="http://www.w3.org/2000/svg">
<g filter="url(#filter0_dd_10_5979)">
<mask id="path-1-outside-1_10_5979" maskUnits="userSpaceOnUse" x="0.34375" y="12.553" width="197" height="57" fill="black">
<rect fill="white" x="0.34375" y="12.553" width="197" height="57"/>
<path d="M33.6191 13.553L58.3285 67.3232H45.119L38.5143 52.9482H18.0397L11.1241 67.3232H2.34375L28.0245 13.553H33.6191ZM20.4873 48.0529H36.3386L28.5295 31.0361L20.4873 48.0529Z"/>
<path d="M65.1472 56.2117C65.8466 58.3874 66.8438 60.0839 68.1388 61.3012C69.4597 62.4927 71.1045 63.0884 73.0729 63.0884C73.9017 63.0884 74.6529 62.9848 75.3263 62.7776C76.0256 62.5704 76.6213 62.2855 77.1134 61.9229C77.6315 61.5344 78.02 61.094 78.279 60.6019C78.5639 60.1098 78.7064 59.5788 78.7064 59.009C78.7064 58.0766 78.525 57.2478 78.1624 56.5225C77.8257 55.7714 77.3466 55.098 76.7249 54.5023C76.1033 53.9065 75.3651 53.3626 74.5104 52.8705C73.6557 52.3525 72.7362 51.8733 71.752 51.433C70.172 50.7337 68.605 49.9826 67.051 49.1796C65.4969 48.3508 64.0983 47.4184 62.855 46.3823C61.6118 45.3204 60.6017 44.116 59.8246 42.7692C59.0735 41.4223 58.6979 39.8683 58.6979 38.107C58.6979 36.4235 59.0476 34.8953 59.7469 33.5226C60.4462 32.1239 61.4305 30.9325 62.6996 29.9482C63.9688 28.964 65.484 28.1999 67.2452 27.656C69.0065 27.1121 70.9491 26.8401 73.0729 26.8401C75.0155 26.8401 76.7379 27.0214 78.2401 27.384C79.7424 27.7467 81.0633 28.2647 82.203 28.9381C83.3426 29.6115 84.3528 30.4404 85.2334 31.4246C86.114 32.3829 86.904 33.4708 87.6033 34.6881L80.6101 37.0969C80.2475 35.8277 79.8071 34.8435 79.2891 34.1442C78.7711 33.4449 78.2272 32.9268 77.6574 32.5901C77.0876 32.2275 76.5307 32.0074 75.9868 31.9297C75.4428 31.8519 74.9637 31.8131 74.5493 31.8131C73.7981 31.8131 73.0859 31.9037 72.4124 32.0851C71.739 32.2405 71.1433 32.4736 70.6253 32.7844C70.1073 33.0952 69.6929 33.4837 69.382 33.9499C69.0712 34.3902 68.9158 34.9083 68.9158 35.504C68.9158 36.2551 69.1101 36.9674 69.4986 37.6408C69.8871 38.3142 70.431 38.9488 71.1304 39.5445C71.8297 40.1143 72.6456 40.6582 73.578 41.1763C74.5363 41.6943 75.5723 42.1864 76.6861 42.6526C78.3696 43.3519 80.0014 44.129 81.5814 44.9837C83.1872 45.8384 84.6118 46.8097 85.855 47.8975C87.0982 48.9595 88.0954 50.1509 88.8465 51.4719C89.5977 52.7669 89.9732 54.2174 89.9732 55.8232C89.9732 57.5586 89.6883 59.1774 89.1185 60.6796C88.5487 62.1819 87.6163 63.4899 86.3212 64.6036C85.0521 65.7173 83.3944 66.598 81.3482 67.2455C79.328 67.893 76.8674 68.2168 73.9665 68.2168C71.48 68.2168 69.3691 67.9319 67.6337 67.362C65.9243 66.7922 64.4738 66.067 63.2824 65.1864C62.0909 64.2798 61.1067 63.2697 60.3297 62.156C59.5527 61.0422 58.8663 59.9414 58.2706 58.8536L65.1472 56.2117Z"/>
<path d="M90.77 32.5124V29.6763L97.1805 27.5395V19.4584L105.611 15.0293H109.224V27.5395H118.976V32.5124H109.224V58.1154C109.224 58.9184 109.432 59.6177 109.846 60.2134C110.26 60.8091 110.804 61.107 111.478 61.107C111.892 61.107 112.345 60.9645 112.838 60.6796C113.356 60.3947 113.835 60.071 114.275 59.7083C114.741 59.3198 115.143 58.9313 115.479 58.5428C115.842 58.1543 116.101 57.8564 116.257 57.6492L120.375 60.9127C119.701 61.9488 118.963 62.9201 118.16 63.8266C117.357 64.7072 116.438 65.4713 115.402 66.1188C114.366 66.7663 113.174 67.2714 111.827 67.634C110.481 68.0225 108.927 68.2168 107.165 68.2168C105.482 68.2168 104.018 67.9707 102.775 67.4786C101.532 67.0124 100.496 66.3519 99.667 65.4972C98.8382 64.6425 98.2166 63.6194 97.8021 62.4279C97.3877 61.2365 97.1805 59.9155 97.1805 58.4651V32.5124H90.77Z"/>
<path d="M149.416 35.8925C148.873 35.4263 148.367 35.0248 147.901 34.6881C147.461 34.3514 147.021 34.0794 146.58 33.8722C146.14 33.665 145.674 33.5226 145.182 33.4449C144.715 33.3412 144.184 33.2894 143.589 33.2894C142.76 33.2894 141.944 33.4319 141.141 33.7168C140.338 33.9758 139.587 34.3514 138.888 34.8435C138.188 35.3097 137.554 35.8666 136.984 36.5141C136.44 37.1357 136.013 37.8092 135.702 38.5344V67.3232H123.658V31.1526L132.089 26.7236L135.702 30.6087C137.023 29.236 138.486 28.1352 140.092 27.3063C141.724 26.4775 143.433 26.0631 145.221 26.0631C146.956 26.0631 148.523 26.4257 149.922 27.1509C151.32 27.8503 152.538 28.6273 153.574 29.482L149.416 35.8925Z"/>
<path d="M174.262 68.0614C171.102 68.0614 168.176 67.5434 165.482 66.5073C162.814 65.4713 160.496 64.0467 158.527 62.2337C156.585 60.4206 155.057 58.2967 153.943 55.8621C152.855 53.4015 152.311 50.7466 152.311 47.8975C152.311 44.8412 152.855 42.031 153.943 39.4668C155.057 36.8767 156.585 34.6492 158.527 32.7844C160.47 30.9195 162.775 29.4691 165.443 28.433C168.137 27.3711 171.063 26.8401 174.223 26.8401C177.383 26.8401 180.31 27.3581 183.004 28.3942C185.697 29.4043 188.016 30.803 189.958 32.5901C191.927 34.3773 193.468 36.4882 194.581 38.9229C195.695 41.3317 196.252 43.9347 196.252 46.732C196.252 49.6588 195.695 52.4172 194.581 55.0073C193.494 57.5974 191.965 59.8637 189.997 61.8063C188.054 63.723 185.736 65.2511 183.043 66.3908C180.349 67.5045 177.422 68.0614 174.262 68.0614ZM175.661 63.205C176.749 63.205 177.759 62.8553 178.691 62.156C179.624 61.4308 180.427 60.4724 181.1 59.281C181.799 58.0636 182.33 56.665 182.693 55.085C183.081 53.5051 183.276 51.8604 183.276 50.1509C183.276 47.6126 183.081 45.2298 182.693 43.0023C182.33 40.7489 181.722 38.7804 180.867 37.0969C180.012 35.4133 178.898 34.0794 177.526 33.0952C176.179 32.111 174.521 31.6188 172.553 31.6188C171.594 31.6188 170.675 31.9685 169.794 32.6678C168.914 33.3671 168.137 34.3125 167.463 35.504C166.79 36.6695 166.246 38.0293 165.831 39.5834C165.443 41.1115 165.249 42.7303 165.249 44.4398C165.249 47.004 165.482 49.4257 165.948 51.705C166.44 53.9842 167.127 55.9786 168.007 57.6881C168.914 59.3716 170.002 60.7185 171.271 61.7286C172.566 62.7128 174.029 63.205 175.661 63.205Z"/>
</mask>
<g filter="url(#filter1_i_10_5979)">
<path d="M33.6191 13.553L58.3285 67.3232H45.119L38.5143 52.9482H18.0397L11.1241 67.3232H2.34375L28.0245 13.553H33.6191ZM20.4873 48.0529H36.3386L28.5295 31.0361L20.4873 48.0529Z" fill="url(#paint0_linear_10_5979)"/>
<path d="M65.1472 56.2117C65.8466 58.3874 66.8438 60.0839 68.1388 61.3012C69.4597 62.4927 71.1045 63.0884 73.0729 63.0884C73.9017 63.0884 74.6529 62.9848 75.3263 62.7776C76.0256 62.5704 76.6213 62.2855 77.1134 61.9229C77.6315 61.5344 78.02 61.094 78.279 60.6019C78.5639 60.1098 78.7064 59.5788 78.7064 59.009C78.7064 58.0766 78.525 57.2478 78.1624 56.5225C77.8257 55.7714 77.3466 55.098 76.7249 54.5023C76.1033 53.9065 75.3651 53.3626 74.5104 52.8705C73.6557 52.3525 72.7362 51.8733 71.752 51.433C70.172 50.7337 68.605 49.9826 67.051 49.1796C65.4969 48.3508 64.0983 47.4184 62.855 46.3823C61.6118 45.3204 60.6017 44.116 59.8246 42.7692C59.0735 41.4223 58.6979 39.8683 58.6979 38.107C58.6979 36.4235 59.0476 34.8953 59.7469 33.5226C60.4462 32.1239 61.4305 30.9325 62.6996 29.9482C63.9688 28.964 65.484 28.1999 67.2452 27.656C69.0065 27.1121 70.9491 26.8401 73.0729 26.8401C75.0155 26.8401 76.7379 27.0214 78.2401 27.384C79.7424 27.7467 81.0633 28.2647 82.203 28.9381C83.3426 29.6115 84.3528 30.4404 85.2334 31.4246C86.114 32.3829 86.904 33.4708 87.6033 34.6881L80.6101 37.0969C80.2475 35.8277 79.8071 34.8435 79.2891 34.1442C78.7711 33.4449 78.2272 32.9268 77.6574 32.5901C77.0876 32.2275 76.5307 32.0074 75.9868 31.9297C75.4428 31.8519 74.9637 31.8131 74.5493 31.8131C73.7981 31.8131 73.0859 31.9037 72.4124 32.0851C71.739 32.2405 71.1433 32.4736 70.6253 32.7844C70.1073 33.0952 69.6929 33.4837 69.382 33.9499C69.0712 34.3902 68.9158 34.9083 68.9158 35.504C68.9158 36.2551 69.1101 36.9674 69.4986 37.6408C69.8871 38.3142 70.431 38.9488 71.1304 39.5445C71.8297 40.1143 72.6456 40.6582 73.578 41.1763C74.5363 41.6943 75.5723 42.1864 76.6861 42.6526C78.3696 43.3519 80.0014 44.129 81.5814 44.9837C83.1872 45.8384 84.6118 46.8097 85.855 47.8975C87.0982 48.9595 88.0954 50.1509 88.8465 51.4719C89.5977 52.7669 89.9732 54.2174 89.9732 55.8232C89.9732 57.5586 89.6883 59.1774 89.1185 60.6796C88.5487 62.1819 87.6163 63.4899 86.3212 64.6036C85.0521 65.7173 83.3944 66.598 81.3482 67.2455C79.328 67.893 76.8674 68.2168 73.9665 68.2168C71.48 68.2168 69.3691 67.9319 67.6337 67.362C65.9243 66.7922 64.4738 66.067 63.2824 65.1864C62.0909 64.2798 61.1067 63.2697 60.3297 62.156C59.5527 61.0422 58.8663 59.9414 58.2706 58.8536L65.1472 56.2117Z" fill="url(#paint1_linear_10_5979)"/>
<path d="M90.77 32.5124V29.6763L97.1805 27.5395V19.4584L105.611 15.0293H109.224V27.5395H118.976V32.5124H109.224V58.1154C109.224 58.9184 109.432 59.6177 109.846 60.2134C110.26 60.8091 110.804 61.107 111.478 61.107C111.892 61.107 112.345 60.9645 112.838 60.6796C113.356 60.3947 113.835 60.071 114.275 59.7083C114.741 59.3198 115.143 58.9313 115.479 58.5428C115.842 58.1543 116.101 57.8564 116.257 57.6492L120.375 60.9127C119.701 61.9488 118.963 62.9201 118.16 63.8266C117.357 64.7072 116.438 65.4713 115.402 66.1188C114.366 66.7663 113.174 67.2714 111.827 67.634C110.481 68.0225 108.927 68.2168 107.165 68.2168C105.482 68.2168 104.018 67.9707 102.775 67.4786C101.532 67.0124 100.496 66.3519 99.667 65.4972C98.8382 64.6425 98.2166 63.6194 97.8021 62.4279C97.3877 61.2365 97.1805 59.9155 97.1805 58.4651V32.5124H90.77Z" fill="url(#paint2_linear_10_5979)"/>
<path d="M149.416 35.8925C148.873 35.4263 148.367 35.0248 147.901 34.6881C147.461 34.3514 147.021 34.0794 146.58 33.8722C146.14 33.665 145.674 33.5226 145.182 33.4449C144.715 33.3412 144.184 33.2894 143.589 33.2894C142.76 33.2894 141.944 33.4319 141.141 33.7168C140.338 33.9758 139.587 34.3514 138.888 34.8435C138.188 35.3097 137.554 35.8666 136.984 36.5141C136.44 37.1357 136.013 37.8092 135.702 38.5344V67.3232H123.658V31.1526L132.089 26.7236L135.702 30.6087C137.023 29.236 138.486 28.1352 140.092 27.3063C141.724 26.4775 143.433 26.0631 145.221 26.0631C146.956 26.0631 148.523 26.4257 149.922 27.1509C151.32 27.8503 152.538 28.6273 153.574 29.482L149.416 35.8925Z" fill="url(#paint3_linear_10_5979)"/>
<path d="M174.262 68.0614C171.102 68.0614 168.176 67.5434 165.482 66.5073C162.814 65.4713 160.496 64.0467 158.527 62.2337C156.585 60.4206 155.057 58.2967 153.943 55.8621C152.855 53.4015 152.311 50.7466 152.311 47.8975C152.311 44.8412 152.855 42.031 153.943 39.4668C155.057 36.8767 156.585 34.6492 158.527 32.7844C160.47 30.9195 162.775 29.4691 165.443 28.433C168.137 27.3711 171.063 26.8401 174.223 26.8401C177.383 26.8401 180.31 27.3581 183.004 28.3942C185.697 29.4043 188.016 30.803 189.958 32.5901C191.927 34.3773 193.468 36.4882 194.581 38.9229C195.695 41.3317 196.252 43.9347 196.252 46.732C196.252 49.6588 195.695 52.4172 194.581 55.0073C193.494 57.5974 191.965 59.8637 189.997 61.8063C188.054 63.723 185.736 65.2511 183.043 66.3908C180.349 67.5045 177.422 68.0614 174.262 68.0614ZM175.661 63.205C176.749 63.205 177.759 62.8553 178.691 62.156C179.624 61.4308 180.427 60.4724 181.1 59.281C181.799 58.0636 182.33 56.665 182.693 55.085C183.081 53.5051 183.276 51.8604 183.276 50.1509C183.276 47.6126 183.081 45.2298 182.693 43.0023C182.33 40.7489 181.722 38.7804 180.867 37.0969C180.012 35.4133 178.898 34.0794 177.526 33.0952C176.179 32.111 174.521 31.6188 172.553 31.6188C171.594 31.6188 170.675 31.9685 169.794 32.6678C168.914 33.3671 168.137 34.3125 167.463 35.504C166.79 36.6695 166.246 38.0293 165.831 39.5834C165.443 41.1115 165.249 42.7303 165.249 44.4398C165.249 47.004 165.482 49.4257 165.948 51.705C166.44 53.9842 167.127 55.9786 168.007 57.6881C168.914 59.3716 170.002 60.7185 171.271 61.7286C172.566 62.7128 174.029 63.205 175.661 63.205Z" fill="url(#paint4_linear_10_5979)"/>
</g>
<path d="M33.6191 13.553L58.3285 67.3232H45.119L38.5143 52.9482H18.0397L11.1241 67.3232H2.34375L28.0245 13.553H33.6191ZM20.4873 48.0529H36.3386L28.5295 31.0361L20.4873 48.0529Z" stroke="url(#paint5_linear_10_5979)" stroke-width="2" mask="url(#path-1-outside-1_10_5979)"/>
<path d="M65.1472 56.2117C65.8466 58.3874 66.8438 60.0839 68.1388 61.3012C69.4597 62.4927 71.1045 63.0884 73.0729 63.0884C73.9017 63.0884 74.6529 62.9848 75.3263 62.7776C76.0256 62.5704 76.6213 62.2855 77.1134 61.9229C77.6315 61.5344 78.02 61.094 78.279 60.6019C78.5639 60.1098 78.7064 59.5788 78.7064 59.009C78.7064 58.0766 78.525 57.2478 78.1624 56.5225C77.8257 55.7714 77.3466 55.098 76.7249 54.5023C76.1033 53.9065 75.3651 53.3626 74.5104 52.8705C73.6557 52.3525 72.7362 51.8733 71.752 51.433C70.172 50.7337 68.605 49.9826 67.051 49.1796C65.4969 48.3508 64.0983 47.4184 62.855 46.3823C61.6118 45.3204 60.6017 44.116 59.8246 42.7692C59.0735 41.4223 58.6979 39.8683 58.6979 38.107C58.6979 36.4235 59.0476 34.8953 59.7469 33.5226C60.4462 32.1239 61.4305 30.9325 62.6996 29.9482C63.9688 28.964 65.484 28.1999 67.2452 27.656C69.0065 27.1121 70.9491 26.8401 73.0729 26.8401C75.0155 26.8401 76.7379 27.0214 78.2401 27.384C79.7424 27.7467 81.0633 28.2647 82.203 28.9381C83.3426 29.6115 84.3528 30.4404 85.2334 31.4246C86.114 32.3829 86.904 33.4708 87.6033 34.6881L80.6101 37.0969C80.2475 35.8277 79.8071 34.8435 79.2891 34.1442C78.7711 33.4449 78.2272 32.9268 77.6574 32.5901C77.0876 32.2275 76.5307 32.0074 75.9868 31.9297C75.4428 31.8519 74.9637 31.8131 74.5493 31.8131C73.7981 31.8131 73.0859 31.9037 72.4124 32.0851C71.739 32.2405 71.1433 32.4736 70.6253 32.7844C70.1073 33.0952 69.6929 33.4837 69.382 33.9499C69.0712 34.3902 68.9158 34.9083 68.9158 35.504C68.9158 36.2551 69.1101 36.9674 69.4986 37.6408C69.8871 38.3142 70.431 38.9488 71.1304 39.5445C71.8297 40.1143 72.6456 40.6582 73.578 41.1763C74.5363 41.6943 75.5723 42.1864 76.6861 42.6526C78.3696 43.3519 80.0014 44.129 81.5814 44.9837C83.1872 45.8384 84.6118 46.8097 85.855 47.8975C87.0982 48.9595 88.0954 50.1509 88.8465 51.4719C89.5977 52.7669 89.9732 54.2174 89.9732 55.8232C89.9732 57.5586 89.6883 59.1774 89.1185 60.6796C88.5487 62.1819 87.6163 63.4899 86.3212 64.6036C85.0521 65.7173 83.3944 66.598 81.3482 67.2455C79.328 67.893 76.8674 68.2168 73.9665 68.2168C71.48 68.2168 69.3691 67.9319 67.6337 67.362C65.9243 66.7922 64.4738 66.067 63.2824 65.1864C62.0909 64.2798 61.1067 63.2697 60.3297 62.156C59.5527 61.0422 58.8663 59.9414 58.2706 58.8536L65.1472 56.2117Z" stroke="url(#paint6_linear_10_5979)" stroke-width="2" mask="url(#path-1-outside-1_10_5979)"/>
<path d="M90.77 32.5124V29.6763L97.1805 27.5395V19.4584L105.611 15.0293H109.224V27.5395H118.976V32.5124H109.224V58.1154C109.224 58.9184 109.432 59.6177 109.846 60.2134C110.26 60.8091 110.804 61.107 111.478 61.107C111.892 61.107 112.345 60.9645 112.838 60.6796C113.356 60.3947 113.835 60.071 114.275 59.7083C114.741 59.3198 115.143 58.9313 115.479 58.5428C115.842 58.1543 116.101 57.8564 116.257 57.6492L120.375 60.9127C119.701 61.9488 118.963 62.9201 118.16 63.8266C117.357 64.7072 116.438 65.4713 115.402 66.1188C114.366 66.7663 113.174 67.2714 111.827 67.634C110.481 68.0225 108.927 68.2168 107.165 68.2168C105.482 68.2168 104.018 67.9707 102.775 67.4786C101.532 67.0124 100.496 66.3519 99.667 65.4972C98.8382 64.6425 98.2166 63.6194 97.8021 62.4279C97.3877 61.2365 97.1805 59.9155 97.1805 58.4651V32.5124H90.77Z" stroke="url(#paint7_linear_10_5979)" stroke-width="2" mask="url(#path-1-outside-1_10_5979)"/>
<path d="M149.416 35.8925C148.873 35.4263 148.367 35.0248 147.901 34.6881C147.461 34.3514 147.021 34.0794 146.58 33.8722C146.14 33.665 145.674 33.5226 145.182 33.4449C144.715 33.3412 144.184 33.2894 143.589 33.2894C142.76 33.2894 141.944 33.4319 141.141 33.7168C140.338 33.9758 139.587 34.3514 138.888 34.8435C138.188 35.3097 137.554 35.8666 136.984 36.5141C136.44 37.1357 136.013 37.8092 135.702 38.5344V67.3232H123.658V31.1526L132.089 26.7236L135.702 30.6087C137.023 29.236 138.486 28.1352 140.092 27.3063C141.724 26.4775 143.433 26.0631 145.221 26.0631C146.956 26.0631 148.523 26.4257 149.922 27.1509C151.32 27.8503 152.538 28.6273 153.574 29.482L149.416 35.8925Z" stroke="url(#paint8_linear_10_5979)" stroke-width="2" mask="url(#path-1-outside-1_10_5979)"/>
<path d="M174.262 68.0614C171.102 68.0614 168.176 67.5434 165.482 66.5073C162.814 65.4713 160.496 64.0467 158.527 62.2337C156.585 60.4206 155.057 58.2967 153.943 55.8621C152.855 53.4015 152.311 50.7466 152.311 47.8975C152.311 44.8412 152.855 42.031 153.943 39.4668C155.057 36.8767 156.585 34.6492 158.527 32.7844C160.47 30.9195 162.775 29.4691 165.443 28.433C168.137 27.3711 171.063 26.8401 174.223 26.8401C177.383 26.8401 180.31 27.3581 183.004 28.3942C185.697 29.4043 188.016 30.803 189.958 32.5901C191.927 34.3773 193.468 36.4882 194.581 38.9229C195.695 41.3317 196.252 43.9347 196.252 46.732C196.252 49.6588 195.695 52.4172 194.581 55.0073C193.494 57.5974 191.965 59.8637 189.997 61.8063C188.054 63.723 185.736 65.2511 183.043 66.3908C180.349 67.5045 177.422 68.0614 174.262 68.0614ZM175.661 63.205C176.749 63.205 177.759 62.8553 178.691 62.156C179.624 61.4308 180.427 60.4724 181.1 59.281C181.799 58.0636 182.33 56.665 182.693 55.085C183.081 53.5051 183.276 51.8604 183.276 50.1509C183.276 47.6126 183.081 45.2298 182.693 43.0023C182.33 40.7489 181.722 38.7804 180.867 37.0969C180.012 35.4133 178.898 34.0794 177.526 33.0952C176.179 32.111 174.521 31.6188 172.553 31.6188C171.594 31.6188 170.675 31.9685 169.794 32.6678C168.914 33.3671 168.137 34.3125 167.463 35.504C166.79 36.6695 166.246 38.0293 165.831 39.5834C165.443 41.1115 165.249 42.7303 165.249 44.4398C165.249 47.004 165.482 49.4257 165.948 51.705C166.44 53.9842 167.127 55.9786 168.007 57.6881C168.914 59.3716 170.002 60.7185 171.271 61.7286C172.566 62.7128 174.029 63.205 175.661 63.205Z" stroke="url(#paint9_linear_10_5979)" stroke-width="2" mask="url(#path-1-outside-1_10_5979)"/>
<path d="M193.872 89.7466L193.789 90.3184H194.366H210.219H210.654L210.714 89.8876C211.934 81.1696 213.632 73.2349 215.807 66.0818C217.984 58.9229 220.573 52.2633 223.573 46.1022L223.574 46.101C226.577 39.892 229.95 34.0074 233.691 28.4468C237.483 22.8776 241.602 17.3291 246.048 11.8014L246.158 11.6641V11.488V1.81836V1.31836H245.658H181.658H181.158V1.81836V13.7594V14.2594H181.658H225.34C220.971 19.6103 217.097 25.1784 213.718 30.9638C210.169 36.9977 207.08 43.2274 204.45 49.6526L204.45 49.6542C201.865 56.0344 199.696 62.588 197.944 69.3147L197.943 69.3169C196.236 75.9971 194.879 82.807 193.872 89.7466Z" fill="url(#paint10_linear_10_5979)" stroke="url(#paint11_linear_10_5979)"/>
</g>
<defs>
<filter id="filter0_dd_10_5979" x="0.757812" y="0.818359" width="253.9" height="104" filterUnits="userSpaceOnUse" color-interpolation-filters="sRGB">
<feFlood flood-opacity="0" result="BackgroundImageFix"/>
<feColorMatrix in="SourceAlpha" type="matrix" values="0 0 0 0 0 0 0 0 0 0 0 0 0 0 0 0 0 0 127 0" result="hardAlpha"/>
<feOffset dx="4" dy="4"/>
<feComposite in2="hardAlpha" operator="out"/>
<feColorMatrix type="matrix" values="0 0 0 0 0.252181 0 0 0 0 0 0 0 0 0 0 0 0 0 1 0"/>
<feBlend mode="normal" in2="BackgroundImageFix" result="effect1_dropShadow_10_5979"/>
<feColorMatrix in="SourceAlpha" type="matrix" values="0 0 0 0 0 0 0 0 0 0 0 0 0 0 0 0 0 0 127 0" result="hardAlpha"/>
<feOffset dx="4" dy="10"/>
<feGaussianBlur stdDeviation="2"/>
<feComposite in2="hardAlpha" operator="out"/>
<feColorMatrix type="matrix" values="0 0 0 0 0 0 0 0 0 0 0 0 0 0 0 0 0 0 0.6 0"/>
<feBlend mode="normal" in2="effect1_dropShadow_10_5979" result="effect2_dropShadow_10_5979"/>
<feBlend mode="normal" in="SourceGraphic" in2="effect2_dropShadow_10_5979" result="shape"/>
</filter>
<filter id="filter1_i_10_5979" x="0.757812" y="12.553" width="196.494" height="60.6638" filterUnits="userSpaceOnUse" color-interpolation-filters="sRGB">
<feFlood flood-opacity="0" result="BackgroundImageFix"/>
<feBlend mode="normal" in="SourceGraphic" in2="BackgroundImageFix" result="shape"/>
<feColorMatrix in="SourceAlpha" type="matrix" values="0 0 0 0 0 0 0 0 0 0 0 0 0 0 0 0 0 0 127 0" result="hardAlpha"/>
<feOffset dy="4"/>
<feGaussianBlur stdDeviation="2"/>
<feComposite in2="hardAlpha" operator="arithmetic" k2="-1" k3="1"/>
<feColorMatrix type="matrix" values="0 0 0 0 1 0 0 0 0 1 0 0 0 0 1 0 0 0 1 0"/>
<feBlend mode="normal" in2="shape" result="effect1_innerShadow_10_5979"/>
</filter>
<linearGradient id="paint0_linear_10_5979" x1="91.0248" y1="26.3371" x2="91.1212" y2="68.8713" gradientUnits="userSpaceOnUse">
<stop stop-color="#FCFCEC"/>
<stop offset="0.3" stop-color="#FFE091"/>
<stop offset="0.405" stop-color="#DF93AA"/>
<stop offset="0.687836" stop-color="#76CDFF"/>
<stop offset="0.935" stop-color="#8EB2EA"/>
<stop offset="1" stop-color="#FFEA31"/>
</linearGradient>
<linearGradient id="paint1_linear_10_5979" x1="91.0248" y1="26.3371" x2="91.1212" y2="68.8713" gradientUnits="userSpaceOnUse">
<stop stop-color="#FCFCEC"/>
<stop offset="0.3" stop-color="#FFE091"/>
<stop offset="0.405" stop-color="#DF93AA"/>
<stop offset="0.687836" stop-color="#76CDFF"/>
<stop offset="0.935" stop-color="#8EB2EA"/>
<stop offset="1" stop-color="#FFEA31"/>
</linearGradient>
<linearGradient id="paint2_linear_10_5979" x1="91.0248" y1="26.3371" x2="91.1212" y2="68.8713" gradientUnits="userSpaceOnUse">
<stop stop-color="#FCFCEC"/>
<stop offset="0.3" stop-color="#FFE091"/>
<stop offset="0.405" stop-color="#DF93AA"/>
<stop offset="0.687836" stop-color="#76CDFF"/>
<stop offset="0.935" stop-color="#8EB2EA"/>
<stop offset="1" stop-color="#FFEA31"/>
</linearGradient>
<linearGradient id="paint3_linear_10_5979" x1="91.0248" y1="26.3371" x2="91.1212" y2="68.8713" gradientUnits="userSpaceOnUse">
<stop stop-color="#FCFCEC"/>
<stop offset="0.3" stop-color="#FFE091"/>
<stop offset="0.405" stop-color="#DF93AA"/>
<stop offset="0.687836" stop-color="#76CDFF"/>
<stop offset="0.935" stop-color="#8EB2EA"/>
<stop offset="1" stop-color="#FFEA31"/>
</linearGradient>
<linearGradient id="paint4_linear_10_5979" x1="91.0248" y1="26.3371" x2="91.1212" y2="68.8713" gradientUnits="userSpaceOnUse">
<stop stop-color="#FCFCEC"/>
<stop offset="0.3" stop-color="#FFE091"/>
<stop offset="0.405" stop-color="#DF93AA"/>
<stop offset="0.687836" stop-color="#76CDFF"/>
<stop offset="0.935" stop-color="#8EB2EA"/>
<stop offset="1" stop-color="#FFEA31"/>
</linearGradient>
<linearGradient id="paint5_linear_10_5979" x1="106.722" y1="13.553" x2="106.722" y2="68.2168" gradientUnits="userSpaceOnUse">
<stop offset="0.41" stop-color="#FFF5E3"/>
<stop offset="1" stop-color="#FFCA00"/>
</linearGradient>
<linearGradient id="paint6_linear_10_5979" x1="106.722" y1="13.553" x2="106.722" y2="68.2168" gradientUnits="userSpaceOnUse">
<stop offset="0.41" stop-color="#FFF5E3"/>
<stop offset="1" stop-color="#FFCA00"/>
</linearGradient>
<linearGradient id="paint7_linear_10_5979" x1="106.722" y1="13.553" x2="106.722" y2="68.2168" gradientUnits="userSpaceOnUse">
<stop offset="0.41" stop-color="#FFF5E3"/>
<stop offset="1" stop-color="#FFCA00"/>
</linearGradient>
<linearGradient id="paint8_linear_10_5979" x1="106.722" y1="13.553" x2="106.722" y2="68.2168" gradientUnits="userSpaceOnUse">
<stop offset="0.41" stop-color="#FFF5E3"/>
<stop offset="1" stop-color="#FFCA00"/>
</linearGradient>
<linearGradient id="paint9_linear_10_5979" x1="106.722" y1="13.553" x2="106.722" y2="68.2168" gradientUnits="userSpaceOnUse">
<stop offset="0.41" stop-color="#FFF5E3"/>
<stop offset="1" stop-color="#FFCA00"/>
</linearGradient>
<linearGradient id="paint10_linear_10_5979" x1="208.846" y1="22.3988" x2="209.661" y2="90.8627" gradientUnits="userSpaceOnUse">
<stop stop-color="#FCFCEC"/>
<stop offset="0.3" stop-color="#FFE091"/>
<stop offset="0.405" stop-color="#DF93AA"/>
<stop offset="0.687836" stop-color="#76CDFF"/>
<stop offset="0.935" stop-color="#8EB2EA"/>
<stop offset="1" stop-color="#FFEA31"/>
</linearGradient>
<linearGradient id="paint11_linear_10_5979" x1="213.658" y1="1.81836" x2="213.658" y2="89.8184" gradientUnits="userSpaceOnUse">
<stop offset="0.41" stop-color="#FFF5E3"/>
<stop offset="1" stop-color="#FFCA00"/>
</linearGradient>
</defs>
</svg>
