<svg width="148" height="38" viewBox="0 0 148 38" fill="none" xmlns="http://www.w3.org/2000/svg">
<path fill-rule="evenodd" clip-rule="evenodd" d="M16.8675 27.9955C12.3599 29.8622 6.68354 27.9544 4.85656 23.195C3.00342 18.3962 6.07744 12.963 11.1522 11.9679C17.403 10.4677 23.9341 17.2926 20.201 22.9986C19.6527 23.6796 18.4455 24.5544 17.6245 23.7748C17.0602 23.2389 16.9985 22.301 16.8375 21.583C16.8279 21.5402 16.8411 21.4955 16.8724 21.4647L19.9321 18.4528L19.9347 18.45C20.2217 18.1252 20.0414 17.5864 19.6035 17.5078L19.6023 17.5076L15.3737 16.8468C15.3333 16.8405 15.2982 16.8154 15.2795 16.7792L13.323 13.0035L13.3222 13.0022C13.1072 12.6145 12.5278 12.6146 12.3128 13.0022L12.312 13.0036L10.3622 16.7782C10.3433 16.8147 10.3079 16.84 10.267 16.8462C8.86401 17.0575 7.37271 17.2922 6.07673 17.499L6.0728 17.4996L6.06891 17.5006C5.55694 17.6201 5.43941 18.1661 5.78238 18.5332C6.72915 19.5465 7.77193 20.4927 8.75641 21.4587C8.78571 21.4875 8.79925 21.5286 8.79264 21.5692C8.57597 22.9001 8.3543 24.2307 8.1391 25.5609C8.03029 26.234 8.6106 26.5082 9.1743 26.225L13.022 24.2919C13.0576 24.274 13.0989 24.274 13.1364 24.293L14.1518 24.8061L14.1555 24.8077C14.3998 24.9099 14.6423 24.6328 14.4958 24.4076L14.4942 24.405L14.4923 24.4025C14.0503 23.7996 13.6179 23.173 13.1541 22.5783C12.8968 22.2484 12.5182 22.1023 12.1214 22.285L12.1195 22.2858L10.7465 22.9809L11.056 21.0544L11.0562 21.0529C11.0825 20.8543 11.0274 20.6668 10.8796 20.5153L10.8789 20.5146L9.47965 19.1318L11.4272 18.826C11.6277 18.7961 11.8059 18.6699 11.898 18.4902L12.792 16.7571L13.6861 18.4904C13.7777 18.6672 13.9512 18.7926 14.1483 18.8257L16.11 19.1319L14.7099 20.5099L14.7076 20.5125C14.517 20.7254 14.4944 20.9764 14.6112 21.2347C14.9684 22.0251 15.3281 22.8144 15.6875 23.6038C16.2436 25.0309 17.7431 25.9308 19.2768 25.7657C22.2395 25.4809 23.8776 21.9252 23.9341 19.3235C24.011 15.7762 22.5705 13.2048 20.4348 11.1736C18.2732 9.11798 15.3841 7.97916 12.3847 8.0003C9.34647 7.97848 6.42331 9.14731 4.25508 11.251C0.639383 14.759 0.120112 20.6048 2.27924 24.6805L2.28018 24.6823L2.28119 24.684C3.28003 26.413 4.55348 27.6794 6.25333 28.7316C9.45195 30.7115 13.9401 30.7964 17.1023 28.6521C17.4465 28.4186 17.3329 27.8028 16.8675 27.9955Z" fill="#C22251"/>
<path d="M31.2298 10.1567H34.686C34.7769 10.1567 34.8085 10.232 34.8396 10.3017L42.4333 27.3298C42.4725 27.4178 42.4054 27.5201 42.3084 27.5201H38.9126C38.8059 27.5201 38.7501 27.4902 38.7081 27.3961L36.6566 22.8009H29.6379L28.1582 26.0973L28.6352 27.3363C28.6688 27.4235 28.6017 27.5201 28.5076 27.5201H24.7437C24.6467 27.5201 24.5794 27.4175 24.6189 27.3296L31.672 11.5841L31.1056 10.3482C31.0652 10.2601 31.1323 10.1567 31.2298 10.1567ZM82.1083 10.1567H93.542C93.617 10.1567 93.6786 10.2174 93.6786 10.2922V11.5676C93.6786 11.5985 93.6805 11.6294 93.6677 11.6584L87.1445 27.412C87.1201 27.4709 87.0791 27.5201 87.0085 27.5201H83.3914C83.2939 27.5201 83.2285 27.4175 83.2663 27.3299L89.7382 12.9984L82.2994 13.1127C82.2269 13.1138 82.1711 13.0774 82.1551 13.003L81.9839 10.301C81.9787 10.223 82.0172 10.1567 82.1083 10.1567ZM57.7467 11.7009V15.6038H60.5928C60.6682 15.6038 60.7294 15.6644 60.7294 15.7393V17.8992C60.7294 17.974 60.6682 18.0347 60.5928 18.0347H57.7467V23.2054C57.7467 23.7803 57.9456 24.2619 58.3448 24.6583C58.9597 25.2444 59.8662 25.23 60.6638 25.23C60.7577 25.23 60.8247 25.3262 60.7916 25.4133L59.9867 27.5264C59.9667 27.5791 59.9158 27.614 59.859 27.614C58.3958 27.614 56.6163 27.7174 55.5014 26.6116C54.8209 25.9367 54.4909 24.966 54.4909 23.722V18.0347H52.1892C52.0958 18.0347 52.0287 17.9393 52.0611 17.8523L52.8659 15.6923C52.8858 15.6391 52.9369 15.6038 52.9941 15.6038H54.4909V12.9218C54.4909 12.8669 54.5242 12.8175 54.5753 12.7966L57.5581 11.5757C57.6464 11.5395 57.7467 11.6061 57.7467 11.7009ZM33.1248 14.8546L30.7519 20.2525H35.5412L33.1248 14.8546ZM65.6351 15.4575V16.6677C66.7791 15.7666 68.6842 14.725 70.118 15.6491C70.168 15.6813 70.1911 15.7416 70.1757 15.7985L69.4889 18.2872C69.469 18.3595 69.3902 18.4029 69.3177 18.3811C68.1834 18.0435 66.4328 17.3182 65.7063 18.7066V27.3846C65.7063 27.4594 65.6448 27.5201 65.5697 27.5201H62.5633C62.4879 27.5201 62.4268 27.4594 62.4268 27.3846V17.7002L61.7581 16.534C61.7149 16.4586 61.7558 16.3602 61.8399 16.3367L65.4614 15.3271C65.5473 15.3032 65.6351 15.3692 65.6351 15.4575ZM48.0728 15.3221C49.2229 15.3221 50.3782 15.7097 51.3224 16.3556C51.3744 16.3911 51.3951 16.4575 51.3721 16.516L50.4726 18.8169C50.4406 18.8993 50.3346 18.9293 50.2634 18.8763C49.4513 18.2722 48.3755 17.706 47.3389 17.706C46.4909 17.706 46.248 18.6683 46.6682 19.275C46.991 19.6898 47.4571 19.932 47.9503 20.0951C48.6068 20.312 49.2762 20.4848 49.9035 20.7805C50.6054 21.0663 51.1955 21.5917 51.5112 22.2807C51.9716 23.2851 51.8366 24.6854 51.1382 25.5444C50.4669 26.3335 49.5782 26.7824 48.6833 27.2684C48.0627 27.6085 47.3848 27.7783 46.6525 27.7783C45.3779 27.7783 44.2145 27.4177 43.166 26.6977C43.114 26.662 43.0936 26.5957 43.1164 26.5373L44.0633 24.119C44.0947 24.0383 44.1975 24.0075 44.2689 24.0571C45.2469 24.736 46.419 25.4178 47.6467 25.4178C48.5383 25.4178 48.6859 24.2675 48.2869 23.6742C47.6863 22.6814 45.9484 22.5243 44.963 22.0846C44.3008 21.7889 43.7449 21.3025 43.4248 20.6507C43.0454 19.7304 43.1334 18.6223 43.6236 17.7591C43.92 17.2692 44.324 16.8849 44.8334 16.6075C45.8127 16.0389 46.8943 15.3221 48.0728 15.3221ZM76.9233 15.3221C78.4405 15.3221 79.9576 15.8981 81.0644 16.9319C82.2461 18.0342 82.8598 19.5887 82.8598 21.1863C82.8598 23.2288 81.7575 25.1769 79.9954 26.2354C79.0842 26.734 78.191 27.3092 77.1715 27.5625C75.8961 27.9177 74.5335 27.8208 73.2972 27.3692C68.9458 25.6035 68.2257 19.3074 72.5232 16.9131C73.9185 16.0976 75.2401 15.3221 76.9233 15.3221ZM74.4001 18.0083C73.3934 18.7496 72.9881 19.9799 72.9881 21.1863C72.9881 22.2674 73.3664 23.3329 74.0891 24.1478C74.8316 24.9478 75.8287 25.3709 76.9233 25.3709C77.3324 25.3709 77.7236 25.3088 78.1038 25.1553C79.0009 24.3485 79.5087 23.1569 79.5087 21.9611C79.5087 20.8761 79.1311 19.7814 78.3853 18.977C77.678 18.2151 76.6181 17.753 75.5742 17.753C75.1715 17.753 74.738 17.7652 74.4001 18.0083Z" fill="#232323"/>
<path d="M95.1259 27.7535C94.5894 27.7535 94.1333 27.5747 93.7577 27.217C93.3821 26.8414 93.1943 26.3854 93.1943 25.8488C93.1943 25.2944 93.3732 24.8383 93.7309 24.4806C94.1065 24.105 94.5715 23.9172 95.1259 23.9172C95.6803 23.9172 96.1364 24.105 96.4941 24.4806C96.8697 24.8383 97.0575 25.2944 97.0575 25.8488C97.0575 26.3854 96.8697 26.8414 96.4941 27.217C96.1364 27.5747 95.6803 27.7535 95.1259 27.7535Z" fill="#232323"/>
<path d="M106.165 27.7535C104.949 27.7535 103.849 27.4942 102.865 26.9756C101.899 26.439 101.13 25.6789 100.558 24.6952C99.9857 23.6937 99.6995 22.5222 99.6995 21.1809C99.6995 19.911 99.9589 18.8022 100.478 17.8543C101.014 16.8885 101.756 16.1463 102.704 15.6276C103.67 15.1089 104.779 14.8496 106.031 14.8496C106.979 14.8496 107.792 14.9748 108.472 15.2252C109.17 15.4577 109.715 15.7528 110.109 16.1105L108.821 18.4445C108.07 17.6933 107.22 17.3177 106.272 17.3177C105.128 17.3177 104.251 17.6665 103.643 18.364C103.053 19.0615 102.758 19.9915 102.758 21.154C102.758 22.4775 103.062 23.5059 103.67 24.2392C104.296 24.9724 105.163 25.3391 106.272 25.3391C106.827 25.3391 107.363 25.2586 107.882 25.0976C108.418 24.9367 108.83 24.7489 109.116 24.5343L110.162 26.5731C109.769 26.8772 109.214 27.1544 108.499 27.4048C107.801 27.6373 107.023 27.7535 106.165 27.7535Z" fill="#232323"/>
<path d="M126.853 15.1715H129.75V17.3982C130.144 16.5576 130.716 15.9227 131.467 15.4935C132.236 15.0642 133.113 14.8496 134.096 14.8496C136.296 14.8675 137.646 15.6276 138.147 17.1299C138.541 16.4324 139.131 15.878 139.918 15.4666C140.705 15.0553 141.536 14.8496 142.413 14.8496C143.701 14.8496 144.675 15.1 145.337 15.6008C145.999 16.0837 146.437 16.7812 146.652 17.6933C146.884 18.5875 147 19.7948 147 21.315V27.4853H144.076V21.2882C144.076 19.8395 143.924 18.8022 143.62 18.1762C143.334 17.5502 142.771 17.2372 141.93 17.2372C140.803 17.2372 139.945 17.6218 139.354 18.3908C138.782 19.142 138.496 20.1346 138.496 21.3686V27.4853H135.599V20.8589C135.599 19.911 135.563 19.2046 135.491 18.7396C135.42 18.2746 135.223 17.9079 134.901 17.6396C134.579 17.3714 134.061 17.2372 133.345 17.2372C132.719 17.2372 132.129 17.425 131.575 17.8006C131.038 18.1762 130.6 18.6859 130.26 19.3298C129.938 19.9557 129.777 20.6354 129.777 21.3686V27.4853H126.853V15.1715Z" fill="#232323"/>
<path d="M118.943 15.4131C120.46 15.4131 121.977 15.9891 123.084 17.0229C124.266 18.1252 124.88 19.6798 124.88 21.2773C124.88 23.3198 123.777 25.2679 122.015 26.3264C121.104 26.825 120.211 27.4002 119.191 27.6536C117.916 28.0087 116.553 27.9118 115.317 27.4602C110.966 25.6945 110.246 19.3984 114.543 17.0041C115.938 16.1886 117.26 15.4131 118.943 15.4131ZM116.42 18.0994C115.413 18.8407 115.008 20.0709 115.008 21.2773C115.008 22.3584 115.386 23.4239 116.109 24.2388C116.851 25.0388 117.849 25.4619 118.943 25.4619C119.352 25.4619 119.743 25.3998 120.124 25.2463C121.021 24.4395 121.529 23.2479 121.529 22.0521C121.529 20.9671 121.151 19.8725 120.405 19.0681C119.698 18.3061 118.638 17.844 117.594 17.844C117.191 17.844 116.758 17.8563 116.42 18.0994Z" fill="#232323"/>
</svg>
